<?xml version="1.0" encoding="UTF-8"?>
<svg id="_图层_1" data-name="图层 1" xmlns="http://www.w3.org/2000/svg" viewBox="0 0 1336.81 533.95">
  <defs>
    <style>
      .cls-1 {
        font-family: JetBrainsMono-Light, 'JetBrains Mono';
        font-size: 152px;
        font-weight: 300;
      }

      .cls-2, .cls-3 {
        fill: none;
      }

      .cls-4 {
        fill: #1a312c;
      }

      .cls-3 {
        stroke: #000;
        stroke-width: .3px;
      }

      .cls-5 {
        fill: #89d7b7;
      }
    </style>
  </defs>
  <g>
    <path class="cls-2" d="M416.97,266.97c0-82.1-67.16-148.66-150-148.66s-150,66.56-150,148.66,67.16,148.66,150,148.66c19.82,0,38.74-3.82,56.06-10.74,12.44-4.97,24.06-11.55,34.58-19.47,36.07-27.15,59.36-70.1,59.36-118.45Z"/>
    <g>
      <g>
        <path class="cls-4" d="M266.97,479.45c-117.16,0-212.47-95.32-212.47-212.47,0-53.58,20.38-105.16,56.48-144.24-26.58,32.41-41.03,72.63-41.03,115.13,0,100.35,81.64,181.99,181.99,181.99,24.73,0,48.71-4.88,71.28-14.5,12.36-4.94,24.03-11.51,34.69-19.53,47.6-34.15,76.02-89.46,76.02-147.96,0-100.35-81.64-181.99-181.99-181.99-4.28,0-8.57.15-12.85.45,9.23-1.21,18.56-1.83,27.88-1.83,117.16,0,212.48,95.32,212.48,212.47s-95.32,212.47-212.48,212.47Z"/>
        <path d="M266.97,55c28.62,0,56.38,5.6,82.51,16.66,25.24,10.68,47.91,25.96,67.38,45.43,19.47,19.47,34.75,42.14,45.43,67.38,11.05,26.13,16.66,53.89,16.66,82.51s-5.6,56.38-16.66,82.51c-10.68,25.24-25.96,47.91-45.43,67.38-19.47,19.47-42.14,34.75-67.38,45.43-26.13,11.05-53.89,16.66-82.51,16.66s-56.38-5.6-82.51-16.66c-25.24-10.68-47.91-25.96-67.38-45.43-19.47-19.47-34.75-42.14-45.43-67.38-11.05-26.13-16.66-53.89-16.66-82.51,0-30.52,6.35-59.97,18.86-87.53,7.4-16.3,16.71-31.43,27.83-45.23-20.96,30.23-32.23,66.05-32.23,103.65,0,100.62,81.86,182.49,182.49,182.49,24.79,0,48.84-4.89,71.46-14.53,12.41-4.96,24.12-11.55,34.79-19.59,47.74-34.25,76.23-89.71,76.23-148.37,0-99.89-80.67-181.29-180.28-182.47,4.27-.26,8.55-.39,12.83-.39M266.97,54c-15.93,0-31.44,1.76-46.37,5.08,10.18-1.77,20.65-2.7,31.34-2.7,100.23,0,181.49,81.25,181.49,181.49,0,60.81-29.91,114.63-75.82,147.56-10.53,7.92-22.14,14.5-34.58,19.47-21.83,9.3-45.86,14.46-71.09,14.46-100.23,0-181.49-81.25-181.49-181.49,0-50.44,20.59-96.08,53.81-128.97-43.15,38.98-70.26,95.36-70.26,158.08,0,117.62,95.35,212.97,212.97,212.97s212.97-95.35,212.97-212.97S384.6,54,266.97,54h0Z"/>
      </g>







</g>
    <g>
      <g>
        <path class="cls-5" d="M251.94,418.85c-99.8,0-180.99-81.19-180.99-180.99,0-48.68,19.06-94.35,53.66-128.61,26.42-26.16,59.64-43.34,96.08-49.68,10.28-1.79,20.79-2.7,31.25-2.7,99.8,0,180.99,81.19,180.99,180.99,0,48.98-20.04,95.73-54.63,129.55,25.15-27.23,39.18-62.63,39.18-100.43,0-82.24-67.51-149.16-150.5-149.16s-150.5,66.91-150.5,149.16,67.51,149.16,150.5,149.16c10.42,0,20.7-1.04,30.75-3.11-14.85,3.88-30.16,5.83-45.78,5.83Z"/>
        <path d="M251.94,57.37c24.37,0,48,4.77,70.25,14.18,21.49,9.09,40.79,22.1,57.37,38.68,16.58,16.58,29.59,35.88,38.68,57.37,9.41,22.25,14.18,45.89,14.18,70.25,0,29.16-7.12,58.13-20.58,83.77-6.29,11.99-13.97,23.27-22.8,33.57,18.68-25.26,28.92-55.87,28.92-88.23,0-82.52-67.74-149.66-151-149.66s-151,67.13-151,149.66,67.74,149.66,151,149.66c4.88,0,9.73-.23,14.54-.68-9.7,1.6-19.58,2.4-29.57,2.4-24.37,0-48-4.77-70.25-14.18-21.49-9.09-40.79-22.1-57.37-38.68-16.58-16.58-29.59-35.88-38.68-57.37-9.41-22.25-14.18-45.89-14.18-70.25s4.83-48.3,14.37-70.67c9.21-21.61,22.38-40.98,39.15-57.58,26.35-26.09,59.48-43.22,95.81-49.54,10.25-1.78,20.74-2.69,31.17-2.69M251.94,56.37c-10.69,0-21.16.93-31.34,2.7-37.25,6.48-70.59,24.32-96.34,49.82-33.22,32.89-53.81,78.52-53.81,128.97,0,100.23,81.25,181.49,181.49,181.49,25.23,0,49.26-5.15,71.09-14.46-17.32,6.92-36.24,10.74-56.06,10.74-82.84,0-150-66.56-150-148.66s67.16-148.66,150-148.66,150,66.56,150,148.66c0,48.35-23.3,91.3-59.36,118.45,45.91-32.93,75.82-86.75,75.82-147.56,0-100.23-81.25-181.49-181.49-181.49h0Z"/>
      </g>







</g>
  </g>
  <text class="cls-1" transform="translate(516.03 318.38)"><tspan x="0" y="0">Socreate </tspan></text>
</svg>